<svg width="45" height="45" viewBox="0 0 45 45" fill="none" xmlns="http://www.w3.org/2000/svg">
<path d="M27.9938 4.6875V15.75C27.9938 16.575 27.0188 16.9875 26.4188 16.4438L23.1376 13.425C22.9651 13.2626 22.7371 13.1721 22.5001 13.1721C22.2631 13.1721 22.0351 13.2626 21.8626 13.425L18.5813 16.425C17.9813 16.9875 17.0063 16.5562 17.0063 15.75V4.6875C17.0063 4.1625 17.4188 3.75 17.9438 3.75H27.0563C27.5813 3.75 27.9938 4.1625 27.9938 4.6875Z" fill="white"/>
<path d="M31.8375 3.86062C31.2937 3.78562 30.8063 4.25437 30.8063 4.79812V16.0856C30.8063 17.5106 29.9625 18.8044 28.65 19.3856C27.3375 19.9481 25.8188 19.7044 24.7687 18.7294L23.1375 17.2294C22.965 17.0669 22.737 16.9765 22.5 16.9765C22.263 16.9765 22.035 17.0669 21.8625 17.2294L20.2312 18.7294C19.5562 19.3669 18.675 19.6856 17.7937 19.6856C17.2968 19.6874 16.8051 19.5852 16.35 19.3856C15.0375 18.8044 14.1938 17.5106 14.1938 16.0856V4.79812C14.1938 4.25437 13.7063 3.78562 13.1625 3.86062C7.9125 4.51687 5.625 8.06063 5.625 13.1231V31.8731C5.625 37.4981 8.4375 41.2481 15 41.2481H30C36.5625 41.2481 39.375 37.4981 39.375 31.8731V13.1231C39.375 8.06063 37.0875 4.51687 31.8375 3.86062ZM32.8125 35.1544H16.875C16.1062 35.1544 15.4688 34.5169 15.4688 33.7481C15.4688 32.9794 16.1062 32.3419 16.875 32.3419H32.8125C33.5812 32.3419 34.2188 32.9794 34.2188 33.7481C34.2188 34.5169 33.5812 35.1544 32.8125 35.1544ZM32.8125 27.6544H24.8438C24.075 27.6544 23.4375 27.0169 23.4375 26.2481C23.4375 25.4794 24.075 24.8419 24.8438 24.8419H32.8125C33.5812 24.8419 34.2188 25.4794 34.2188 26.2481C34.2188 27.0169 33.5812 27.6544 32.8125 27.6544Z" fill="white"/>
</svg>
