<svg width="24" height="24" viewBox="0 0 24 24" fill="none" xmlns="http://www.w3.org/2000/svg">
<path d="M11.9997 16.8C11.2997 16.8 10.5997 16.53 10.0697 16L3.54973 9.48C3.41025 9.33886 3.33203 9.14843 3.33203 8.95C3.33203 8.75157 3.41025 8.56114 3.54973 8.42C3.83973 8.13 4.31973 8.13 4.60973 8.42L11.1297 14.94C11.6097 15.42 12.3897 15.42 12.8697 14.94L19.3897 8.42C19.6797 8.13 20.1597 8.13 20.4497 8.42C20.7397 8.71 20.7397 9.19 20.4497 9.48L13.9297 16C13.3997 16.53 12.6997 16.8 11.9997 16.8Z" fill="black"/>
</svg>
