<svg width="30" height="30" viewBox="0 0 52 52" fill="none" xmlns="http://www.w3.org/2000/svg">
<g id="arrow_forward">
<path id="Icon-color" d="M4.33334 27.0833V24.9167C4.33334 24.3184 4.81836 23.8333 5.41667 23.8333H40.4517L30.81 14.2133C30.6049 14.0099 30.4896 13.733 30.4896 13.4442C30.4896 13.1553 30.6049 12.8784 30.81 12.675L32.3483 11.1583C32.5517 10.9532 32.8286 10.8379 33.1175 10.8379C33.4064 10.8379 33.6833 10.9532 33.8867 11.1583L47.19 24.44C47.4948 24.7445 47.6663 25.1575 47.6667 25.5883V26.4117C47.6617 26.8416 47.4909 27.2529 47.19 27.56L33.8867 40.8417C33.6833 41.0468 33.4064 41.1621 33.1175 41.1621C32.8286 41.1621 32.5517 41.0468 32.3483 40.8417L30.81 39.3033C30.6062 39.1036 30.4913 38.8303 30.4913 38.545C30.4913 38.2597 30.6062 37.9864 30.81 37.7867L40.4517 28.1667H5.41667C4.81836 28.1667 4.33334 27.6816 4.33334 27.0833Z" fill="white"/>
</g>
</svg>
