<svg width="328" height="353" viewBox="0 0 328 353" fill="none" xmlns="http://www.w3.org/2000/svg">
<path d="M228.111 72.012C228.111 72.012 190.306 49.2576 146.944 66.5405C103.582 83.8234 75.9123 128.824 52.6243 164.674C29.3363 200.525 32.8721 241.953 60.1683 265.548C87.4644 289.142 112.189 266.254 154.698 272.7C197.207 279.145 207.552 287.73 246.728 268.464C285.904 249.197 301.871 189.617 281.299 139.626C260.727 89.6338 228.111 72.012 228.111 72.012Z" fill="#263238"/>
<path opacity="0.8" d="M228.111 72.012C228.111 72.012 190.306 49.2576 146.944 66.5405C103.582 83.8234 75.9123 128.824 52.6243 164.674C29.3363 200.525 32.8721 241.953 60.1683 265.548C87.4644 289.142 112.189 266.254 154.698 272.7C197.207 279.145 207.552 287.73 246.728 268.464C285.904 249.197 301.871 189.617 281.299 139.626C260.727 89.6338 228.111 72.012 228.111 72.012Z" fill="white"/>
<path d="M262.512 135.347C259.277 133.448 257.808 135.03 256.608 133.448C255.407 131.867 259.842 127.751 251.018 123.635C251.018 123.635 250.435 114.774 238.377 114.457C226.32 114.139 229.6 123.324 226.32 125.534C223.04 127.744 222.2 124.27 218.966 126.487C215.732 128.704 217.202 133.13 214.558 133.766C211.914 134.401 208.385 130.942 205.151 133.13C201.917 135.319 201.917 137.246 200.441 137.246C198.965 137.246 196.032 135.983 194.268 137.246C192.503 138.51 190.443 140.07 190.443 140.07H264.867C264.867 140.07 265.752 137.246 262.512 135.347Z" fill="#263238"/>
<path opacity="0.5" d="M262.512 135.347C259.277 133.448 257.808 135.03 256.608 133.448C255.407 131.867 259.842 127.751 251.018 123.635C251.018 123.635 250.435 114.774 238.377 114.457C226.32 114.139 229.6 123.324 226.32 125.534C223.04 127.744 222.2 124.27 218.966 126.487C215.732 128.704 217.202 133.13 214.558 133.766C211.914 134.401 208.385 130.942 205.151 133.13C201.917 135.319 201.917 137.246 200.441 137.246C198.965 137.246 196.032 135.983 194.268 137.246C192.503 138.51 190.443 140.07 190.443 140.07H264.867C264.867 140.07 265.752 137.246 262.512 135.347Z" fill="#263238"/>
<path d="M149.876 94.8652C147.961 93.7427 147.088 94.6817 146.393 93.7427C145.698 92.8037 148.308 90.368 143.113 87.9252C143.113 87.9252 142.765 82.6726 135.621 82.489C128.478 82.3055 130.373 87.7417 128.478 89.0548C126.582 90.368 126.037 88.3065 124.115 89.6126C122.193 90.9187 123.072 93.5521 121.491 93.9333C119.91 94.3145 117.831 92.2389 115.915 93.5521C114 94.8652 114 95.9948 113.127 95.9948C112.255 95.9948 110.503 95.2394 109.467 95.9948C108.43 96.7502 107.203 97.6822 107.203 97.6822H151.274C151.274 97.6822 151.798 96.016 149.876 94.8652Z" fill="#263238"/>
<path opacity="0.5" d="M149.876 94.8652C147.961 93.7427 147.088 94.6817 146.393 93.7427C145.698 92.8037 148.308 90.368 143.113 87.9252C143.113 87.9252 142.765 82.6726 135.621 82.489C128.478 82.3055 130.373 87.7417 128.478 89.0548C126.582 90.368 126.037 88.3065 124.115 89.6126C122.193 90.9187 123.072 93.5521 121.491 93.9333C119.91 94.3145 117.831 92.2389 115.915 93.5521C114 94.8652 114 95.9948 113.127 95.9948C112.255 95.9948 110.503 95.2394 109.467 95.9948C108.43 96.7502 107.203 97.6822 107.203 97.6822H151.274C151.274 97.6822 151.798 96.016 149.876 94.8652Z" fill="#263238"/>
<path d="M176.753 251.265C171.242 248.025 168.736 250.722 166.729 248.025C164.722 245.328 172.239 238.324 157.21 231.314C157.21 231.314 156.207 216.212 135.667 215.676C115.128 215.139 120.632 230.77 115.121 234.547C109.611 238.324 108.109 232.387 102.598 236.164C97.088 239.941 99.5874 247.46 95.0807 248.568C90.5739 249.677 84.5846 243.711 79.048 247.488C73.5114 251.265 73.5376 254.499 71.0317 254.499C68.5258 254.499 63.5139 252.339 60.5357 254.499C57.5574 256.659 54.0216 259.349 54.0216 259.349H180.761C180.761 259.349 182.263 254.499 176.753 251.265Z" fill="#263238"/>
<path opacity="0.5" d="M176.753 251.265C171.242 248.025 168.736 250.722 166.729 248.025C164.722 245.328 172.239 238.324 157.21 231.314C157.21 231.314 156.207 216.212 135.667 215.676C115.128 215.139 120.632 230.77 115.121 234.547C109.611 238.324 108.109 232.387 102.598 236.164C97.088 239.941 99.5874 247.46 95.0807 248.568C90.5739 249.677 84.5846 243.711 79.048 247.488C73.5114 251.265 73.5376 254.499 71.0317 254.499C68.5258 254.499 63.5139 252.339 60.5357 254.499C57.5574 256.659 54.0216 259.349 54.0216 259.349H180.761C180.761 259.349 182.263 254.499 176.753 251.265Z" fill="#263238"/>
<g opacity="0.5">
<path d="M262.512 135.347C259.277 133.448 257.808 135.03 256.608 133.448C255.407 131.867 259.842 127.751 251.018 123.635C251.018 123.635 250.435 114.774 238.377 114.457C226.32 114.139 229.6 123.324 226.32 125.534C223.04 127.744 222.2 124.27 218.966 126.487C215.732 128.704 217.202 133.13 214.558 133.766C211.914 134.401 208.385 130.942 205.151 133.13C201.917 135.319 201.917 137.246 200.441 137.246C198.965 137.246 196.032 135.983 194.268 137.246C192.503 138.51 190.443 140.07 190.443 140.07H264.867C264.867 140.07 265.752 137.246 262.512 135.347Z" fill="white"/>
<path opacity="0.5" d="M262.512 135.347C259.277 133.448 257.808 135.03 256.608 133.448C255.407 131.867 259.842 127.751 251.018 123.635C251.018 123.635 250.435 114.774 238.377 114.457C226.32 114.139 229.6 123.324 226.32 125.534C223.04 127.744 222.2 124.27 218.966 126.487C215.732 128.704 217.202 133.13 214.558 133.766C211.914 134.401 208.385 130.942 205.151 133.13C201.917 135.319 201.917 137.246 200.441 137.246C198.965 137.246 196.032 135.983 194.268 137.246C192.503 138.51 190.443 140.07 190.443 140.07H264.867C264.867 140.07 265.752 137.246 262.512 135.347Z" fill="white"/>
</g>
<g opacity="0.5">
<path d="M149.876 94.8652C147.961 93.7427 147.088 94.6817 146.393 93.7427C145.698 92.8037 148.308 90.368 143.113 87.9252C143.113 87.9252 142.765 82.6726 135.621 82.489C128.478 82.3055 130.373 87.7417 128.478 89.0548C126.582 90.368 126.037 88.3065 124.115 89.6126C122.193 90.9187 123.072 93.5521 121.491 93.9333C119.91 94.3145 117.831 92.2389 115.915 93.5521C114 94.8652 114 95.9948 113.127 95.9948C112.255 95.9948 110.503 95.2394 109.467 95.9948C108.43 96.7502 107.203 97.6822 107.203 97.6822H151.274C151.274 97.6822 151.798 96.016 149.876 94.8652Z" fill="white"/>
<path opacity="0.5" d="M149.876 94.8652C147.961 93.7427 147.088 94.6817 146.393 93.7427C145.698 92.8037 148.308 90.368 143.113 87.9252C143.113 87.9252 142.765 82.6726 135.621 82.489C128.478 82.3055 130.373 87.7417 128.478 89.0548C126.582 90.368 126.037 88.3065 124.115 89.6126C122.193 90.9187 123.072 93.5521 121.491 93.9333C119.91 94.3145 117.831 92.2389 115.915 93.5521C114 94.8652 114 95.9948 113.127 95.9948C112.255 95.9948 110.503 95.2394 109.467 95.9948C108.43 96.7502 107.203 97.6822 107.203 97.6822H151.274C151.274 97.6822 151.798 96.016 149.876 94.8652Z" fill="white"/>
</g>
<g opacity="0.5">
<path d="M176.753 251.265C171.242 248.025 168.736 250.722 166.729 248.025C164.722 245.328 172.239 238.324 157.21 231.314C157.21 231.314 156.207 216.212 135.667 215.676C115.128 215.139 120.632 230.77 115.121 234.547C109.611 238.324 108.109 232.387 102.598 236.164C97.088 239.941 99.5874 247.46 95.0807 248.568C90.5739 249.677 84.5846 243.711 79.048 247.488C73.5114 251.265 73.5376 254.499 71.0317 254.499C68.5258 254.499 63.5139 252.339 60.5357 254.499C57.5574 256.659 54.0216 259.349 54.0216 259.349H180.761C180.761 259.349 182.263 254.499 176.753 251.265Z" fill="white"/>
<path opacity="0.5" d="M176.753 251.265C171.242 248.025 168.736 250.722 166.729 248.025C164.722 245.328 172.239 238.324 157.21 231.314C157.21 231.314 156.207 216.212 135.667 215.676C115.128 215.139 120.632 230.77 115.121 234.547C109.611 238.324 108.109 232.387 102.598 236.164C97.088 239.941 99.5874 247.46 95.0807 248.568C90.5739 249.677 84.5846 243.711 79.048 247.488C73.5114 251.265 73.5376 254.499 71.0317 254.499C68.5258 254.499 63.5139 252.339 60.5357 254.499C57.5574 256.659 54.0216 259.349 54.0216 259.349H180.761C180.761 259.349 182.263 254.499 176.753 251.265Z" fill="white"/>
</g>
<path d="M84.1452 228.271C84.1452 228.271 80.9046 225.214 77.5524 224.169C74.2003 223.124 70.3364 223.103 66.9974 222.122C63.6583 221.14 61.6641 220.314 61.6641 220.314L61.4935 223.562L84.0074 230.107L99.4103 225.518L100.945 222.15C99.267 222.991 97.5068 223.628 95.6974 224.049C92.3452 224.903 88.5929 224.903 86.5134 225.765C84.4339 226.626 84.1452 228.271 84.1452 228.271Z" fill="white" stroke="#263238" stroke-linecap="round" stroke-linejoin="round"/>
<path d="M61.1786 221.049C65.5795 222.497 70.0906 223.525 74.6594 224.12C78.0958 224.621 81.3587 226.049 84.1452 228.271C86.4119 226.712 89.0213 225.825 91.7089 225.701C94.9416 225.437 98.1306 224.738 101.201 223.618L100.237 225.736L83.6926 229.224L60.8375 222.799L61.1786 221.049Z" fill="white" stroke="#263238" stroke-linecap="round" stroke-linejoin="round"/>
<path d="M60.5553 221.783C64.0521 223.225 67.7161 224.144 71.4449 224.515C77.5326 225.009 83.9745 228.271 83.9745 228.271C86.4662 226.919 89.2018 226.167 91.9909 226.068C95.1209 226.039 98.2352 225.586 101.26 224.72C101.166 225.058 101.142 225.414 101.191 225.763C101.24 226.112 101.36 226.446 101.542 226.739L83.9155 230.777L60.4373 223.435L60.5553 221.783Z" fill="white" stroke="#263238" stroke-linecap="round" stroke-linejoin="round"/>
<path d="M60.2668 223.131L83.1808 229.309V230.156L85.1095 230.212V229.238L102.054 226.358C102.054 226.358 102.795 226.174 102.165 227.064C101.536 227.953 90.6264 238.204 90.6264 238.204L78.5167 239.546L60.1487 235.204L60.2668 223.131Z" fill="#263238"/>
<mask id="mask0_21_249" style="mask-type:luminance" maskUnits="userSpaceOnUse" x="60" y="223" width="43" height="17">
<path d="M60.2668 223.131L83.1808 229.309V230.156L85.1095 230.212V229.238L102.054 226.358C102.054 226.358 102.795 226.174 102.165 227.064C101.536 227.953 90.6264 238.204 90.6264 238.204L78.5167 239.546L60.1487 235.204L60.2668 223.131Z" fill="white"/>
</mask>
<g mask="url(#mask0_21_249)">
<path opacity="0.3" d="M83.1809 230.17V229.309L60.2668 223.131L60.1553 235.246L78.5167 239.588L78.8447 239.553L83.6926 230.184L83.1809 230.17Z" fill="black"/>
</g>
<path d="M60.2668 223.131L83.1808 229.309V230.156L85.1095 230.212V229.238L102.054 226.358C102.054 226.358 102.795 226.174 102.165 227.064C101.536 227.953 90.6264 238.204 90.6264 238.204L78.5167 239.546L60.1487 235.204L60.2668 223.131Z" stroke="#263238" stroke-linecap="round" stroke-linejoin="round"/>
<path d="M83.1809 230.17L78.1166 239.588L79.0875 239.652L85.1095 230.227L83.1809 230.17Z" fill="#263238" stroke="#263238" stroke-linecap="round" stroke-linejoin="round"/>
<path d="M82.3674 287.589C82.3674 287.589 81.2654 290.074 79.7959 291.211C78.3265 292.348 76.4503 292.884 74.9678 293.978C74.1625 294.565 73.3913 295.204 72.6586 295.892L72.0682 293.731L82.0001 286.368L90.2329 287.441L91.5055 289.502C90.5858 289.167 89.628 288.968 88.6585 288.909C86.8938 288.775 85.0636 289.269 83.9025 288.966C83.5679 288.873 83.2567 288.701 82.9912 288.463C82.7258 288.225 82.5127 287.926 82.3674 287.589Z" fill="white" stroke="#263238" stroke-linecap="round" stroke-linejoin="round"/>
<path d="M72.2978 295.461C74.1846 293.934 76.2297 292.647 78.392 291.627C80.0638 290.741 81.449 289.334 82.3674 287.589C83.6251 288.294 85.0613 288.542 86.4608 288.295C88.1084 288.051 89.7821 288.104 91.4136 288.45L90.6068 287.13L82 286.989L71.8583 294.31L72.2978 295.461Z" fill="white" stroke="#263238" stroke-linecap="round" stroke-linejoin="round"/>
<path d="M71.878 295.052C73.3137 293.658 74.9686 292.551 76.7652 291.783C79.6516 290.653 82.2887 287.61 82.2887 287.61C83.6404 288.179 85.1131 288.328 86.5396 288.041C88.0886 287.651 89.6882 287.548 91.2694 287.737C91.0708 287.299 91.0087 286.804 91.0922 286.325L81.8689 285.93L71.5631 293.957L71.878 295.052Z" fill="white" stroke="#263238" stroke-linecap="round" stroke-linejoin="round"/>
<path d="M71.504 294.183L81.7114 287.01L81.5736 286.438L82.5117 286.142L82.6626 286.798L91.3743 286.516C91.3743 286.516 91.7613 286.516 91.3152 286.008C90.8692 285.499 83.968 280.014 83.968 280.014L77.8476 280.72L69.5688 286.05L71.504 294.183Z" fill="#263238"/>
<mask id="mask1_21_249" style="mask-type:luminance" maskUnits="userSpaceOnUse" x="69" y="280" width="23" height="15">
<path d="M71.504 294.183L81.7114 287.01L81.5736 286.438L82.5117 286.142L82.6626 286.798L91.3743 286.516C91.3743 286.516 91.7613 286.516 91.3152 286.008C90.8692 285.499 83.968 280.014 83.968 280.014L77.8476 280.72L69.5688 286.05L71.504 294.183Z" fill="white"/>
</mask>
<g mask="url(#mask1_21_249)">
<path opacity="0.3" d="M81.5999 286.438L81.7377 287.01L71.5303 294.183L69.5754 286.029L77.8542 280.699L78.0182 280.677L81.8492 286.361L81.5999 286.438Z" fill="black"/>
</g>
<path d="M71.504 294.183L81.7114 287.01L81.5736 286.438L82.5117 286.142L82.6626 286.798L91.3743 286.516C91.3743 286.516 91.7613 286.516 91.3152 286.008C90.8692 285.499 83.968 280.014 83.968 280.014L77.8476 280.72L69.5688 286.05L71.504 294.183Z" stroke="#263238" stroke-linecap="round" stroke-linejoin="round"/>
<path d="M81.5998 286.438L77.6638 280.748L78.123 280.579L82.5379 286.142L81.5998 286.438Z" fill="#263238" stroke="#263238" stroke-linecap="round" stroke-linejoin="round"/>
<path d="M234.992 211.595L253.518 231.787L213.961 243.782L211.344 223.541L234.992 211.595Z" fill="#263238" stroke="#263238" stroke-linecap="round" stroke-linejoin="round"/>
<path d="M251.386 234.703L210.471 247.644L213.771 224.374L234.415 214.462L251.386 234.703Z" fill="white" stroke="#263238" stroke-linecap="round" stroke-linejoin="round"/>
<path d="M235.386 215.718L250.605 236.898L212.216 248.893L216.677 223.435L235.386 215.718Z" fill="white"/>
<mask id="mask2_21_249" style="mask-type:luminance" maskUnits="userSpaceOnUse" x="212" y="215" width="39" height="34">
<path d="M235.386 215.718L250.605 236.898L212.216 248.893L216.677 223.435L235.386 215.718Z" fill="white"/>
</mask>
<g mask="url(#mask2_21_249)">
<path opacity="0.17" d="M235.386 215.718L250.605 236.898L212.216 248.893L216.677 223.435L235.386 215.718Z" fill="black"/>
</g>
<path d="M235.386 215.718L250.605 236.898L212.216 248.893L216.677 223.435L235.386 215.718Z" stroke="#263238" stroke-linecap="round" stroke-linejoin="round"/>
<path d="M235.386 215.718L228.406 241.798L201.162 250.672L211.632 226.668L235.386 215.718Z" fill="white" stroke="#263238" stroke-linecap="round" stroke-linejoin="round"/>
<path d="M226.471 239.715L200.198 249.211L199.417 245.243L223.755 235.853L226.471 239.715Z" fill="white" stroke="#263238" stroke-linecap="round" stroke-linejoin="round"/>
<path d="M234.71 212.167L252.16 231.681L251.386 234.703L235.386 215.718L226.471 239.715L223.755 235.853L234.71 212.167Z" fill="white" stroke="#263238" stroke-linecap="round" stroke-linejoin="round"/>
<path d="M234.992 211.595L223.853 236.588L198.158 245.977L211.344 223.541L234.992 211.595Z" fill="#263238"/>
<mask id="mask3_21_249" style="mask-type:luminance" maskUnits="userSpaceOnUse" x="198" y="211" width="37" height="35">
<path d="M234.992 211.595L223.853 236.588L198.158 245.977L211.344 223.541L234.992 211.595Z" fill="white"/>
</mask>
<g mask="url(#mask3_21_249)">
<path opacity="0.3" d="M234.992 211.595L223.853 236.588L198.158 245.977L211.344 223.541L234.992 211.595Z" fill="black"/>
</g>
<path d="M234.992 211.595L223.853 236.588L198.158 245.977L211.344 223.541L234.992 211.595Z" stroke="#263238" stroke-linecap="round" stroke-linejoin="round"/>
<path d="M210.281 225.842L230.951 215.69" stroke="#263238" stroke-linecap="round" stroke-linejoin="round"/>
<path d="M148.925 284.151L167.897 259.031L128.76 257.055L125.644 278.157L148.925 284.151Z" fill="#263238" stroke="#263238" stroke-linecap="round" stroke-linejoin="round"/>
<path d="M165.843 256.631L125.375 254.054L128.077 276.696L148.42 281.412L165.843 256.631Z" fill="white" stroke="#263238" stroke-linecap="round" stroke-linejoin="round"/>
<path d="M149.417 279.894L165.122 254.612L127.146 252.339L130.957 276.893L149.417 279.894Z" fill="white"/>
<mask id="mask4_21_249" style="mask-type:luminance" maskUnits="userSpaceOnUse" x="127" y="252" width="39" height="28">
<path d="M149.417 279.894L165.122 254.612L127.146 252.339L130.957 276.893L149.417 279.894Z" fill="white"/>
</mask>
<g mask="url(#mask4_21_249)">
<path opacity="0.17" d="M149.417 279.894L165.122 254.612L127.146 252.339L130.957 276.893L149.417 279.894Z" fill="black"/>
</g>
<path d="M149.417 279.894L165.122 254.612L127.146 252.339L130.957 276.893L149.417 279.894Z" stroke="#263238" stroke-linecap="round" stroke-linejoin="round"/>
<path d="M149.417 279.894L143.113 255.353L116.171 253.383L126.011 274.923L149.417 279.894Z" fill="white" stroke="#263238" stroke-linecap="round" stroke-linejoin="round"/>
<path d="M141.125 257.958L115.167 255.106L114.295 259.307L138.324 262.547L141.125 257.958Z" fill="white" stroke="#263238" stroke-linecap="round" stroke-linejoin="round"/>
<path d="M148.65 283.65L166.539 259.483L165.843 256.631L149.417 279.894L141.125 257.958L138.324 262.547L148.65 283.65Z" fill="white" stroke="#263238" stroke-linecap="round" stroke-linejoin="round"/>
<path d="M148.925 284.151L138.436 261.785L113.055 258.89L125.644 278.157L148.925 284.151Z" fill="#263238"/>
<mask id="mask5_21_249" style="mask-type:luminance" maskUnits="userSpaceOnUse" x="113" y="258" width="36" height="27">
<path d="M148.925 284.151L138.436 261.785L113.055 258.89L125.644 278.157L148.925 284.151Z" fill="white"/>
</mask>
<g mask="url(#mask5_21_249)">
<path opacity="0.3" d="M148.925 284.151L138.436 261.785L113.055 258.89L125.644 278.157L148.925 284.151Z" fill="black"/>
</g>
<path d="M148.925 284.151L138.436 261.785L113.055 258.89L125.644 278.157L148.925 284.151Z" stroke="#263238" stroke-linecap="round" stroke-linejoin="round"/>
<path d="M123.708 275.375L144.379 280.056" stroke="#263238" stroke-linecap="round" stroke-linejoin="round"/>
<path d="M164.308 115.24C164.308 115.24 155.715 119.709 152.277 125.124C148.84 130.539 149.843 140.536 155.137 143.77C160.431 147.003 178.911 158.878 191.946 157.184C204.98 155.489 202.973 141.151 196.387 135.446C189.8 129.742 180.918 124.658 180.918 124.658C180.918 124.658 180.492 121.58 179.915 120.5C179.337 119.42 172.758 112.466 164.308 115.24Z" fill="#263238" stroke="#263238" stroke-linecap="round" stroke-linejoin="round"/>
<path d="M199.194 138.821C179.685 132.396 166.834 143.897 162.806 148.302C170.875 152.814 182.762 158.356 191.946 157.163C202.848 155.744 203.222 145.471 199.194 138.821Z" fill="white" stroke="#263238" stroke-linecap="round" stroke-linejoin="round"/>
<path d="M185.93 137.126C185.93 137.126 197.39 147.01 193.376 156.852" stroke="#263238" stroke-linecap="round" stroke-linejoin="round"/>
<path d="M148.315 110.934L143.723 133.985H147.416L156.522 115.819C156.522 115.819 154.744 109.995 148.315 110.934Z" fill="white" stroke="#263238" stroke-linecap="round" stroke-linejoin="round"/>
<path d="M206.03 99.7507C202.271 94.8087 197.305 90.2268 188.206 89.4431C188.206 89.4431 180.453 89.1819 169.904 94.011C161.658 97.781 152.848 106.013 148.315 110.955C152.369 112.063 154.783 113.85 156.528 115.84C158.326 113.998 159.893 112.395 161.048 111.386C164.932 107.99 170.632 105.123 170.632 105.123C170.632 105.123 164.446 114.252 163.233 116.603C162.019 118.954 162.872 122.738 169.294 123.783C175.716 124.828 177.297 123.522 179.842 121.954C182.388 120.387 185.543 118.954 186.757 118.954C189.182 119.139 191.589 118.388 193.546 116.836C196.695 114.485 198.033 107.834 199.122 107.312C199.87 106.952 206.489 116.243 211.645 123.218L212.091 122.971C214.335 121.729 216.086 119.194 217.287 116.963C213.115 110.404 208.464 102.956 206.03 99.7507Z" fill="#263238" stroke="#263238" stroke-linecap="round" stroke-linejoin="round"/>
<path d="M184.297 93.8274C184.297 93.8274 181.725 100.485 186.875 103.005" stroke="#263238" stroke-linecap="round" stroke-linejoin="round"/>
<path d="M170.632 105.102L176.221 103.323" stroke="#263238" stroke-linecap="round" stroke-linejoin="round"/>
<path d="M170.56 116.716C170.56 116.716 174.083 120.062 182.329 116.278" stroke="#263238" stroke-linecap="round" stroke-linejoin="round"/>
<path d="M202.737 104.777C200.703 105.067 199.122 107.319 199.122 107.319C201.469 106.781 203.855 106.467 206.253 106.38" stroke="#263238" stroke-linecap="round" stroke-linejoin="round"/>
<path d="M170.816 105.653C170.816 105.653 174.601 105.653 178.255 105.505" stroke="#263238" stroke-linecap="round" stroke-linejoin="round"/>
<path d="M172.843 114.965C172.843 114.965 173.25 117.591 178.524 117.295" stroke="#263238" stroke-linecap="round" stroke-linejoin="round"/>
<path d="M186.875 91.66C186.875 91.66 186.029 96.3549 186.632 98.8329C187.236 101.311 189.42 104.184 191.001 101.184C192.582 98.1834 193.422 94.8299 193.422 93.2273C193.422 91.6247 187.964 88.6595 186.875 91.66Z" fill="white" stroke="#263238" stroke-linecap="round" stroke-linejoin="round"/>
<path d="M199.122 85.7861C199.122 85.7861 202.514 85.0024 205.426 80.957C208.339 76.9116 204.58 76.3963 203.367 72.485C202.153 68.5738 206.424 69.8728 200.244 63.0882C194.065 56.3035 183.995 58.6545 179.252 60.8713C174.509 63.0882 174.66 70.5294 171.255 71.0518C167.851 71.5743 166.401 68.0513 162.281 68.0513C158.162 68.0513 153.793 72.7462 155.492 76.6575C157.191 80.5687 160.464 78.8814 160.707 78.2248C160.95 77.5682 159.008 78.3589 158.883 76.3963C158.759 74.4336 163.246 75.4855 164.584 78.0977C165.666 80.2157 163.679 83.2233 163.744 85.4472C163.882 89.9091 168.959 92.7613 172.22 93.3756C176.621 94.2016 181.974 93.9121 185.963 91.5611C190.863 88.6665 188.587 82.6655 192.195 81.0982C195.803 79.5309 197.653 81.8819 197.653 81.8819L199.122 85.7861Z" fill="#263238" stroke="#263238" stroke-linecap="round" stroke-linejoin="round"/>
<path d="M162.065 70.4729C161.44 70.1808 160.752 70.0797 160.078 70.1805C159.403 70.2814 158.767 70.5804 158.24 71.0448" stroke="white" stroke-linecap="round" stroke-linejoin="round"/>
<path d="M194.419 74.13C194.419 74.13 194.419 66.364 189.354 64.7826C184.29 63.2011 178.504 70.2329 175.578 74.6666C172.653 79.1002 168.362 78.0412 165.207 73.3675C164.91 72.917 164.581 72.4921 164.223 72.0967" stroke="white" stroke-linecap="round" stroke-linejoin="round"/>
<path d="M165.719 88.6948C168.343 90.5092 170.311 91.0316 174.161 89.7326C178.012 88.4336 177.54 81.6842 180.912 78.0554C184.284 74.4265 190.319 75.7185 190.319 75.7185C190.319 75.7185 183.569 71.8214 178.261 75.9727C172.954 80.1239 173.433 87.1345 168.612 88.4336" stroke="white" stroke-linecap="round" stroke-linejoin="round"/>
<path d="M197.797 74.9348C197.797 74.9348 202.389 73.6358 202.14 69.2233" stroke="white" stroke-linecap="round" stroke-linejoin="round"/>
<path d="M160.011 124.962C160.011 124.962 172.475 126.656 178.773 131.316" stroke="white" stroke-linecap="round" stroke-linejoin="round"/>
<path d="M195.167 76.6151C194.39 76.3755 193.566 76.3812 192.793 76.6316C192.019 76.8819 191.329 77.3663 190.804 78.0271C188.744 80.371 188.836 81.5571 187.117 83.0185C186.605 83.5008 185.959 83.7878 185.279 83.835C184.6 83.8823 183.925 83.6871 183.359 83.2798C182.63 82.8915 181.784 83.1527 181.541 84.9742C181.299 86.7956 183.601 88.2359 183.969 88.2359C184.334 88.2572 184.697 88.302 185.058 88.37C185.058 88.37 185.058 91.6317 187.117 93.5874C189.177 95.543 193.304 98.6776 196.092 98.0281C198.88 97.3786 199.968 90.4598 199.968 86.9368C199.867 83.3648 199.213 79.8359 198.033 76.4951C197.18 74.4336 195.167 76.6151 195.167 76.6151Z" fill="white" stroke="#263238" stroke-linecap="round" stroke-linejoin="round"/>
<path d="M192.864 84.5435C192.864 85.2495 192.628 85.8567 192.326 85.8567C192.024 85.8567 191.782 85.2707 191.782 84.5435C191.782 83.8163 192.024 83.2374 192.326 83.2374C192.628 83.2374 192.864 83.8234 192.864 84.5435Z" fill="#263238"/>
<path d="M197.187 84.1058C197.187 84.8118 196.944 85.4189 196.649 85.4189C196.354 85.4189 196.105 84.833 196.105 84.1058C196.105 83.3786 196.347 82.7997 196.649 82.7997C196.951 82.7997 197.187 83.3857 197.187 84.1058Z" fill="#263238"/>
<path d="M190.292 81.896C190.292 81.896 191.099 80.5899 193.133 81.19" stroke="#263238" stroke-linecap="round" stroke-linejoin="round"/>
<path d="M195.429 81.19C195.429 81.19 196.78 79.5874 198 81.19" stroke="#263238" stroke-linecap="round" stroke-linejoin="round"/>
<path d="M195.298 84.1058C195.298 84.1058 195.429 87.0216 196.242 87.0216C197.056 87.0216 196.78 88.3277 195.698 88.7654" stroke="#263238" stroke-linecap="round" stroke-linejoin="round"/>
<path d="M194.615 91.6812C194.615 91.6812 192.182 92.8461 191.237 90.2197" stroke="#263238" stroke-linecap="round" stroke-linejoin="round"/>
<path d="M195.186 156.125C195.186 156.125 181.41 143.12 167.136 138.694C152.861 134.267 136.435 136.35 122.167 132.191C107.899 128.033 99.6858 122.307 99.6858 122.307L98.9576 136.096L194.734 163.94L260.255 144.426L266.782 130.116C266.782 130.116 258.805 134.535 244.537 138.178C230.269 141.821 214.282 141.814 205.328 145.436C196.374 149.058 195.186 156.125 195.186 156.125Z" fill="white" stroke="#263238" stroke-linecap="round" stroke-linejoin="round"/>
<path d="M97.5079 125.421C97.5079 125.421 113.488 135.834 149.489 139.477C173.204 141.871 195.186 156.125 195.186 156.125C204.819 149.497 215.908 145.727 227.33 145.196C246.19 144.419 267.707 136.35 267.707 136.35L263.607 145.436L193.251 160.262L96.0581 132.94L97.5079 125.421Z" fill="white" stroke="#263238" stroke-linecap="round" stroke-linejoin="round"/>
<path d="M94.851 128.548C108.452 135.16 123.009 139.201 137.885 140.494C163.751 142.577 194.458 156.104 194.458 156.104C194.458 156.104 210.655 146.742 228.57 146.742C241.877 146.62 255.116 144.696 267.976 141.016C267.576 142.455 267.477 143.97 267.686 145.454C267.894 146.939 268.406 148.355 269.183 149.601L194.215 166.793L94.3656 135.552L94.851 128.548Z" fill="white" stroke="#263238" stroke-linecap="round" stroke-linejoin="round"/>
<path d="M95.3365 134.726L191.073 160.551V164.194L199.293 164.456V160.262L271.341 148.034C271.341 148.034 274.483 147.25 271.827 151.155C269.17 155.059 222.745 198.513 222.745 198.513L171.249 204.239L93.152 185.791L93.6177 136.152C93.6192 135.927 93.6682 135.705 93.7612 135.504C93.8541 135.302 93.9885 135.126 94.1542 134.988C94.3198 134.851 94.5123 134.756 94.7172 134.71C94.922 134.665 95.1338 134.67 95.3365 134.726Z" fill="#263238"/>
<mask id="mask6_21_249" style="mask-type:luminance" maskUnits="userSpaceOnUse" x="93" y="134" width="180" height="71">
<path d="M95.3365 134.726L191.073 160.551V164.194L199.293 164.456V160.262L271.341 148.034C271.341 148.034 274.483 147.25 271.827 151.155C269.17 155.059 222.745 198.513 222.745 198.513L171.249 204.239L93.152 185.791L93.6177 136.152C93.6192 135.927 93.6682 135.705 93.7612 135.504C93.8541 135.302 93.9885 135.126 94.1542 134.988C94.3198 134.851 94.5123 134.756 94.7172 134.71C94.922 134.665 95.1338 134.67 95.3365 134.726Z" fill="white"/>
</mask>
<g mask="url(#mask6_21_249)">
<path opacity="0.3" d="M191.073 164.194V160.551L93.6375 134.274L93.1586 185.791L171.249 204.267L172.646 204.112L193.258 164.265L191.073 164.194Z" fill="black"/>
</g>
<path d="M95.3365 134.726L191.073 160.551V164.194L199.293 164.456V160.262L271.341 148.034C271.341 148.034 274.483 147.25 271.827 151.155C269.17 155.059 222.745 198.513 222.745 198.513L171.249 204.239L93.152 185.791L93.6177 136.152C93.6192 135.927 93.6682 135.705 93.7612 135.504C93.8541 135.302 93.9885 135.126 94.1542 134.988C94.3198 134.851 94.5123 134.756 94.7172 134.71C94.922 134.665 95.1338 134.67 95.3365 134.726Z" stroke="#263238" stroke-linecap="round" stroke-linejoin="round"/>
<path d="M191.073 164.194L169.556 204.267L173.669 204.521L199.293 164.456L191.073 164.194Z" fill="#263238" stroke="#263238" stroke-linecap="round" stroke-linejoin="round"/>
<path d="M262.885 149.672C262.885 149.672 269.308 150.964 267.969 155.574L271.827 151.169C271.827 151.169 273.591 148.804 272.784 148.345C271.978 147.886 262.885 149.672 262.885 149.672Z" fill="#263238"/>
<path d="M104.212 137.345C104.212 137.345 95.1266 140.049 93.7162 147.356L93.6375 136.152C93.6375 136.152 93.913 134.465 95.3496 134.74C96.7863 135.015 104.212 137.345 104.212 137.345Z" fill="#263238"/>
<path d="M93.2439 182.36L97.8096 187.041L93.1586 185.791L93.2439 182.36Z" fill="#263238"/>
<path d="M219.458 198.845L225.651 195.569L222.391 198.612L219.458 198.845Z" fill="#263238"/>
<path d="M217.287 116.97L234.71 139.449L230.322 140.197L211.645 123.253C211.645 123.253 216.48 119.843 217.287 116.97Z" fill="white" stroke="#263238" stroke-linecap="round" stroke-linejoin="round"/>
<path d="M140.023 131.923C140.023 131.923 139.151 130.787 138.928 131.803C138.705 132.82 136.73 136.35 138.272 136.597C139.813 136.844 140.686 132.813 140.686 132.813L140.023 131.923Z" fill="white" stroke="#263238" stroke-linecap="round" stroke-linejoin="round"/>
<path d="M142.109 131.789C142.109 131.789 141.23 130.652 141.014 131.662C140.797 132.672 138.816 136.209 140.358 136.463C141.899 136.717 142.778 132.672 142.778 132.672L142.109 131.789Z" fill="white" stroke="#263238" stroke-linecap="round" stroke-linejoin="round"/>
<path d="M144.202 131.704C144.202 131.704 143.159 130.441 142.89 131.563C142.621 132.686 140.266 136.611 142.109 136.893C143.953 137.176 144.976 132.657 144.976 132.657L144.202 131.704Z" fill="white" stroke="#263238" stroke-linecap="round" stroke-linejoin="round"/>
<path d="M146.026 132.128L149.542 135.771H145.376L146.026 132.128Z" fill="white" stroke="#263238" stroke-linecap="round" stroke-linejoin="round"/>
<path d="M146.026 132.128C146.026 132.128 144.983 130.864 144.714 131.987C144.445 133.109 142.09 137.035 143.933 137.31C145.776 137.585 146.8 133.074 146.8 133.074L146.026 132.128Z" fill="white" stroke="#263238" stroke-linecap="round" stroke-linejoin="round"/>
<path d="M239.44 135.397C239.44 135.397 240.142 134.126 240.509 135.086C240.877 136.046 243.337 139.209 241.861 139.717C240.385 140.226 238.922 136.385 238.922 136.385L239.44 135.397Z" fill="white" stroke="#263238" stroke-linecap="round" stroke-linejoin="round"/>
<path d="M237.38 135.608C237.38 135.608 238.082 134.338 238.449 135.298C238.817 136.258 241.283 139.421 239.801 139.929C238.318 140.438 236.862 136.597 236.862 136.597L237.38 135.608Z" fill="white" stroke="#263238" stroke-linecap="round" stroke-linejoin="round"/>
<path d="M235.307 135.884C235.307 135.884 236.153 134.472 236.573 135.524C236.993 136.576 239.853 140.07 238.121 140.656C236.39 141.242 234.677 136.985 234.677 136.985L235.307 135.884Z" fill="white" stroke="#263238" stroke-linecap="round" stroke-linejoin="round"/>
<path d="M233.569 136.611L230.623 140.805L234.743 140.099L233.569 136.611Z" fill="white" stroke="#263238" stroke-linecap="round" stroke-linejoin="round"/>
<path d="M233.569 136.611C233.569 136.611 234.408 135.199 234.835 136.251C235.261 137.303 238.115 140.791 236.383 141.376C234.651 141.962 232.939 137.712 232.939 137.712L233.569 136.611Z" fill="white" stroke="#263238" stroke-linecap="round" stroke-linejoin="round"/>
<path d="M114.059 174.318L118.257 173.612L114.059 172.906C113.689 172.846 113.347 172.66 113.082 172.376C112.818 172.091 112.645 171.723 112.589 171.325L111.933 166.8L111.277 171.325C111.222 171.722 111.05 172.089 110.787 172.374C110.523 172.658 110.183 172.845 109.814 172.906L105.609 173.612L109.814 174.318C110.182 174.383 110.521 174.571 110.783 174.855C111.046 175.139 111.219 175.504 111.277 175.9L111.933 180.425L112.589 175.9C112.648 175.503 112.822 175.137 113.086 174.853C113.35 174.569 113.69 174.382 114.059 174.318Z" fill="white"/>
<path d="M82.6953 204.973L86.9003 204.267L82.6953 203.561C82.3272 203.497 81.9873 203.309 81.7236 203.025C81.4598 202.742 81.2857 202.376 81.2259 201.98L80.5699 197.454L79.9139 201.98C79.8569 202.377 79.6838 202.745 79.4195 203.029C79.1553 203.313 78.8138 203.5 78.4445 203.561L74.2395 204.267L78.4445 204.973C78.8138 205.034 79.1553 205.221 79.4195 205.505C79.6838 205.789 79.8569 206.157 79.9139 206.554L80.5699 211.08L81.2259 206.554C81.2857 206.158 81.4598 205.792 81.7236 205.509C81.9873 205.225 82.3272 205.037 82.6953 204.973Z" fill="#263238"/>
<path opacity="0.5" d="M82.6953 204.973L86.9003 204.267L82.6953 203.561C82.3272 203.497 81.9873 203.309 81.7236 203.025C81.4598 202.742 81.2857 202.376 81.2259 201.98L80.5699 197.454L79.9139 201.98C79.8569 202.377 79.6838 202.745 79.4195 203.029C79.1553 203.313 78.8138 203.5 78.4445 203.561L74.2395 204.267L78.4445 204.973C78.8138 205.034 79.1553 205.221 79.4195 205.505C79.6838 205.789 79.8569 206.157 79.9139 206.554L80.5699 211.08L81.2259 206.554C81.2857 206.158 81.4598 205.792 81.7236 205.509C81.9873 205.225 82.3272 205.037 82.6953 204.973Z" fill="white"/>
<path d="M187.393 223.844L191.598 223.138L187.393 222.432C187.025 222.371 186.684 222.186 186.42 221.903C186.156 221.62 185.982 221.254 185.924 220.858L185.268 216.333L184.612 220.858C184.553 221.254 184.38 221.62 184.115 221.903C183.851 222.186 183.51 222.371 183.142 222.432L178.937 223.138L183.142 223.844C183.51 223.905 183.851 224.091 184.115 224.374C184.38 224.657 184.553 225.023 184.612 225.419L185.268 229.944L185.924 225.419C185.982 225.023 186.156 224.657 186.42 224.374C186.684 224.091 187.025 223.905 187.393 223.844Z" fill="#263238"/>
<path opacity="0.5" d="M187.393 223.844L191.598 223.138L187.393 222.432C187.025 222.371 186.684 222.186 186.42 221.903C186.156 221.62 185.982 221.254 185.924 220.858L185.268 216.333L184.612 220.858C184.553 221.254 184.38 221.62 184.115 221.903C183.851 222.186 183.51 222.371 183.142 222.432L178.937 223.138L183.142 223.844C183.51 223.905 183.851 224.091 184.115 224.374C184.38 224.657 184.553 225.023 184.612 225.419L185.268 229.944L185.924 225.419C185.982 225.023 186.156 224.657 186.42 224.374C186.684 224.091 187.025 223.905 187.393 223.844Z" fill="white"/>
<path d="M77.3161 180.898L80.0976 180.425L77.3161 179.952C77.0721 179.912 76.8464 179.789 76.6718 179.601C76.4972 179.413 76.3828 179.17 76.3453 178.907L75.9123 175.921L75.4728 178.907C75.4352 179.17 75.3208 179.413 75.1462 179.601C74.9716 179.789 74.7459 179.912 74.5019 179.952L71.7205 180.425L74.5019 180.898C74.7459 180.939 74.9716 181.062 75.1462 181.25C75.3208 181.438 75.4352 181.681 75.4728 181.943L75.9123 184.93L76.3453 181.943C76.3828 181.681 76.4972 181.438 76.6718 181.25C76.8464 181.062 77.0721 180.939 77.3161 180.898Z" fill="#263238"/>
<path opacity="0.5" d="M77.3161 180.898L80.0976 180.425L77.3161 179.952C77.0721 179.912 76.8464 179.789 76.6718 179.601C76.4972 179.413 76.3828 179.17 76.3453 178.907L75.9123 175.921L75.4728 178.907C75.4352 179.17 75.3208 179.413 75.1462 179.601C74.9716 179.789 74.7459 179.912 74.5019 179.952L71.7205 180.425L74.5019 180.898C74.7459 180.939 74.9716 181.062 75.1462 181.25C75.3208 181.438 75.4352 181.681 75.4728 181.943L75.9123 184.93L76.3453 181.943C76.3828 181.681 76.4972 181.438 76.6718 181.25C76.8464 181.062 77.0721 180.939 77.3161 180.898Z" fill="white"/>
<path d="M257.755 187.507L260.537 187.041L257.755 186.568C257.512 186.526 257.287 186.403 257.112 186.215C256.938 186.027 256.823 185.785 256.785 185.523L256.345 182.529L255.912 185.523C255.874 185.785 255.759 186.027 255.584 186.215C255.41 186.403 255.185 186.526 254.941 186.568L252.16 187.041L254.941 187.507C255.185 187.548 255.41 187.671 255.584 187.859C255.759 188.047 255.874 188.289 255.912 188.551L256.345 191.545L256.785 188.551C256.823 188.289 256.938 188.047 257.112 187.859C257.287 187.671 257.512 187.548 257.755 187.507Z" fill="#263238"/>
<path opacity="0.5" d="M257.755 187.507L260.537 187.041L257.755 186.568C257.512 186.526 257.287 186.403 257.112 186.215C256.938 186.027 256.823 185.785 256.785 185.523L256.345 182.529L255.912 185.523C255.874 185.785 255.759 186.027 255.584 186.215C255.41 186.403 255.185 186.526 254.941 186.568L252.16 187.041L254.941 187.507C255.185 187.548 255.41 187.671 255.584 187.859C255.759 188.047 255.874 188.289 255.912 188.551L256.345 191.545L256.785 188.551C256.823 188.289 256.938 188.047 257.112 187.859C257.287 187.671 257.512 187.548 257.755 187.507Z" fill="white"/>
<path d="M130.642 162.627L133.365 162.168L130.642 161.709C130.403 161.669 130.183 161.548 130.012 161.364C129.841 161.18 129.729 160.943 129.691 160.686L129.258 157.749L128.832 160.686C128.793 160.942 128.681 161.179 128.51 161.363C128.339 161.547 128.119 161.668 127.881 161.709L125.152 162.168L127.881 162.627C128.119 162.668 128.339 162.79 128.51 162.973C128.681 163.157 128.793 163.394 128.832 163.651L129.232 166.616L129.665 163.679C129.698 163.413 129.812 163.166 129.989 162.976C130.165 162.786 130.395 162.663 130.642 162.627Z" fill="white"/>
<path d="M220.836 191.615L223.565 191.15L220.836 190.691C220.597 190.649 220.377 190.528 220.206 190.344C220.036 190.161 219.923 189.924 219.885 189.667L219.458 186.73L219.032 189.667C218.994 189.924 218.881 190.161 218.71 190.344C218.539 190.528 218.319 190.649 218.081 190.691L215.352 191.15L218.081 191.615C218.319 191.656 218.54 191.777 218.711 191.96C218.882 192.144 218.994 192.382 219.032 192.639L219.458 195.569L219.885 192.639C219.922 192.382 220.034 192.144 220.205 191.96C220.376 191.777 220.597 191.656 220.836 191.615Z" fill="white"/>
</svg>
