<svg width="27" height="27" viewBox="0 0 27 27" fill="none" xmlns="http://www.w3.org/2000/svg">
<path d="M13.3333 0C5.98667 0 0 5.98667 0 13.3333C0 20.68 5.98667 26.6667 13.3333 26.6667C20.68 26.6667 26.6667 20.68 26.6667 13.3333C26.6667 5.98667 20.68 0 13.3333 0ZM19.7067 10.2667L12.1467 17.8267C11.9592 18.0139 11.705 18.1191 11.44 18.1191C11.175 18.1191 10.9208 18.0139 10.7333 17.8267L6.96 14.0533C6.77403 13.8651 6.66973 13.6112 6.66973 13.3467C6.66973 13.0821 6.77403 12.8282 6.96 12.64C7.34667 12.2533 7.98667 12.2533 8.37333 12.64L11.44 15.7067L18.2933 8.85333C18.68 8.46667 19.32 8.46667 19.7067 8.85333C20.0933 9.24 20.0933 9.86667 19.7067 10.2667Z" fill="black"/>
</svg>
