<svg width="28" height="28" viewBox="0 0 28 28" fill="none" xmlns="http://www.w3.org/2000/svg">
<path d="M27.3332 9.36V3.30667C27.3332 1.42667 26.4798 0.666668 24.3598 0.666668H18.9732C16.8532 0.666668 15.9998 1.42667 15.9998 3.30667V9.34667C15.9998 11.24 16.8532 11.9867 18.9732 11.9867H24.3598C26.4798 12 27.3332 11.24 27.3332 9.36ZM27.3332 24.36V18.9733C27.3332 16.8533 26.4798 16 24.3598 16H18.9732C16.8532 16 15.9998 16.8533 15.9998 18.9733V24.36C15.9998 26.48 16.8532 27.3333 18.9732 27.3333H24.3598C26.4798 27.3333 27.3332 26.48 27.3332 24.36ZM11.9998 9.36V3.30667C11.9998 1.42667 11.1465 0.666668 9.0265 0.666668H3.63984C1.51984 0.666668 0.666504 1.42667 0.666504 3.30667V9.34667C0.666504 11.24 1.51984 11.9867 3.63984 11.9867H9.0265C11.1465 12 11.9998 11.24 11.9998 9.36ZM11.9998 24.36V18.9733C11.9998 16.8533 11.1465 16 9.0265 16H3.63984C1.51984 16 0.666504 16.8533 0.666504 18.9733V24.36C0.666504 26.48 1.51984 27.3333 3.63984 27.3333H9.0265C11.1465 27.3333 11.9998 26.48 11.9998 24.36Z" fill="black"/>
</svg>
