<svg width="37" height="24" viewBox="0 0 37 24" fill="none" xmlns="http://www.w3.org/2000/svg">
<path d="M33.9168 22.75H7.7085C4.51725 22.75 1.92725 21.07 1.92725 19V2C1.92725 1.59 2.45141 1.25 3.0835 1.25C3.71558 1.25 4.23975 1.59 4.23975 2V19C4.23975 20.24 5.79683 21.25 7.7085 21.25H33.9168C34.5489 21.25 35.0731 21.59 35.0731 22C35.0731 22.41 34.5489 22.75 33.9168 22.75Z" fill="black"/>
<path d="M7.70835 17.75C7.44627 17.75 7.16877 17.69 6.95293 17.57C6.72143 17.4394 6.57864 17.2549 6.55555 17.0564C6.53246 16.858 6.63093 16.6617 6.8296 16.51L13.9059 11.15C14.6767 10.57 15.7867 10.22 16.9584 10.19C18.13 10.17 19.2863 10.45 20.1188 10.99L21.5834 11.94C21.9688 12.19 22.4621 12.31 23.0171 12.31C23.5567 12.3 24.05 12.14 24.4046 11.87L31.4808 6.51001C31.8971 6.20001 32.6217 6.16001 33.115 6.43001C33.5929 6.70001 33.6546 7.17001 33.2383 7.49001L26.1621 12.85C25.3913 13.43 24.2813 13.78 23.1096 13.81C22.5266 13.8232 21.9456 13.759 21.4022 13.6215C20.8587 13.4839 20.3643 13.2758 19.9492 13.01L18.5 12.06C18.1146 11.81 17.6059 11.68 17.0663 11.69C16.5267 11.7 16.0333 11.86 15.6788 12.13L8.60252 17.49C8.48877 17.5707 8.35074 17.6354 8.19695 17.6801C8.04316 17.7248 7.87687 17.7486 7.70835 17.75Z" fill="black"/>
</svg>
