<svg width="45" height="45" viewBox="0 0 45 45" fill="none" xmlns="http://www.w3.org/2000/svg">
<path d="M30 42.6562H15C4.21875 42.6562 4.21875 36.9375 4.21875 31.875V30C4.21875 25.8187 4.21875 21.0938 13.125 21.0938C15.3563 21.0938 16.1813 21.6375 17.3438 22.5C17.4 22.5562 17.475 22.5938 17.5313 22.6688L19.4438 24.6938C21.0563 26.4 23.9813 26.4 25.5938 24.6938L27.5063 22.6688C27.5625 22.6125 27.6188 22.5562 27.6938 22.5C28.8563 21.6187 29.6813 21.0938 31.9125 21.0938C40.8188 21.0938 40.8188 25.8187 40.8188 30V31.875C40.7813 39.0375 37.1625 42.6562 30 42.6562ZM13.125 23.9062C7.03125 23.9062 7.03125 25.8187 7.03125 30V31.875C7.03125 37.0125 7.03125 39.8438 15 39.8438H30C35.5875 39.8438 37.9688 37.4625 37.9688 31.875V30C37.9688 25.8187 37.9688 23.9062 31.875 23.9062C30.525 23.9062 30.2438 24.075 29.4375 24.675L27.6188 26.6062C26.9629 27.3064 26.17 27.8641 25.2894 28.2447C24.4088 28.6254 23.4593 28.8208 22.5 28.8187C21.5407 28.8208 20.5912 28.6254 19.7106 28.2447C18.83 27.8641 18.0371 27.3064 17.3813 26.6062L15.5625 24.675C14.7563 24.075 14.475 23.9062 13.125 23.9062Z" fill="black"/>
<path d="M35.625 23.9062C34.8563 23.9062 34.2188 23.2687 34.2188 22.5V11.25C34.2188 7.06875 34.2188 5.15625 28.125 5.15625H16.875C10.7813 5.15625 10.7813 7.06875 10.7813 11.25V22.5C10.7813 23.2687 10.1438 23.9062 9.375 23.9062C8.60625 23.9062 7.96875 23.2687 7.96875 22.5V11.25C7.96875 7.06875 7.96875 2.34375 16.875 2.34375H28.125C37.0313 2.34375 37.0313 7.06875 37.0313 11.25V22.5C37.0313 23.2687 36.3938 23.9062 35.625 23.9062Z" fill="black"/>
<path d="M26.025 18.7125H19.7813C19.0125 18.7125 18.375 18.075 18.375 17.3063C18.375 16.5375 19.0125 15.9 19.7813 15.9H26.025C26.398 15.9 26.7557 16.0482 27.0194 16.3119C27.2831 16.5756 27.4313 16.9333 27.4313 17.3063C27.4313 17.6792 27.2831 18.0369 27.0194 18.3006C26.7557 18.5643 26.398 18.7125 26.025 18.7125ZM27.5981 13.0875H18.2231C17.4544 13.0875 16.8169 12.45 16.8169 11.6813C16.8169 10.9125 17.4544 10.275 18.2231 10.275H27.5981C27.9711 10.275 28.3288 10.4232 28.5925 10.6869C28.8562 10.9506 29.0044 11.3083 29.0044 11.6813C29.0044 12.0542 28.8562 12.4119 28.5925 12.6756C28.3288 12.9393 27.9711 13.0875 27.5981 13.0875Z" fill="black"/>
</svg>
