<svg width="105" height="105" viewBox="0 0 105 105" fill="none" xmlns="http://www.w3.org/2000/svg">
<path d="M89.375 70V80.9375C89.375 89.3812 82.5062 96.25 74.0625 96.25H30.3125C21.8688 96.25 15 89.3812 15 80.9375V78.0938C15 71.225 20.6 65.625 27.4687 65.625H85C87.4063 65.625 89.375 67.5937 89.375 70ZM67.5 8.75H36.875C19.375 8.75 15 13.125 15 30.625V63.7875C18.325 60.8562 22.7 59.0625 27.4687 59.0625H85C87.4063 59.0625 89.375 57.0938 89.375 54.6875V30.625C89.375 13.125 85 8.75 67.5 8.75ZM56.5625 47.0312H34.6875C32.8938 47.0312 31.4062 45.5437 31.4062 43.75C31.4062 41.9563 32.8938 40.4688 34.6875 40.4688H56.5625C58.3562 40.4688 59.8438 41.9563 59.8438 43.75C59.8438 45.5437 58.3562 47.0312 56.5625 47.0312ZM69.6875 31.7188H34.6875C32.8938 31.7188 31.4062 30.2312 31.4062 28.4375C31.4062 26.6438 32.8938 25.1562 34.6875 25.1562H69.6875C71.4812 25.1562 72.9688 26.6438 72.9688 28.4375C72.9688 30.2312 71.4812 31.7188 69.6875 31.7188Z" fill="white"/>
</svg>
