<svg width="105" height="105" viewBox="0 0 105 105" fill="none" xmlns="http://www.w3.org/2000/svg">
<path d="M92.9688 80.8062L85.75 82.5125C84.1313 82.9063 82.8625 84.1313 82.5125 85.75L80.9813 92.1812C80.15 95.6812 75.6875 96.775 73.3688 94.0187L60.2875 78.9687C60.044 78.6885 59.8759 78.3509 59.7992 77.9876C59.7226 77.6244 59.7398 77.2476 59.8493 76.8928C59.9587 76.5381 60.1569 76.2171 60.425 75.9603C60.693 75.7034 61.0222 75.5192 61.3813 75.425C69.1473 73.537 76.0974 69.1951 81.2 63.0437C82.0313 62.0375 83.5188 61.9062 84.4375 62.825L94.15 72.5375C97.475 75.8625 96.2938 80.0187 92.9688 80.8062ZM11.8125 80.8062L19.0313 82.5125C20.65 82.9063 21.9188 84.1313 22.2688 85.75L23.8 92.1812C24.6313 95.6812 29.0938 96.775 31.4125 94.0187L44.4938 78.9687C45.5438 77.7437 44.975 75.8187 43.4 75.425C35.634 73.537 28.6838 69.1951 23.5813 63.0437C23.3923 62.8031 23.1549 62.6048 22.8845 62.4618C22.614 62.3188 22.3165 62.2342 22.0112 62.2136C21.7059 62.193 21.3998 62.2368 21.1125 62.3421C20.8252 62.4474 20.5633 62.6119 20.3438 62.825L10.6313 72.5375C7.30625 75.8625 8.4875 80.0187 11.8125 80.8062ZM52.5 8.75C35.5688 8.75 21.875 22.4438 21.875 39.375C21.875 45.7188 23.7563 51.5375 26.9938 56.3938C29.3661 59.932 32.452 62.9352 36.0534 65.2106C39.6548 67.4859 43.6921 68.9832 47.9063 69.6062C49.3938 69.8687 50.925 70 52.5 70C54.075 70 55.6063 69.8687 57.0938 69.6062C65.8 68.3375 73.2813 63.3938 78.0063 56.3938C81.3649 51.3551 83.1469 45.4304 83.125 39.375C83.125 22.4438 69.4313 8.75 52.5 8.75ZM65.8875 38.4125L62.2563 42.0437C61.6438 42.6562 61.2938 43.8375 61.5125 44.7125L62.5625 49.2188C63.3938 52.7625 61.5125 54.1625 58.3625 52.2812L53.9875 49.7C53.5432 49.4629 53.0474 49.3389 52.5438 49.3389C52.0402 49.3389 51.5443 49.4629 51.1 49.7L46.725 52.2812C43.575 54.1187 41.6938 52.7625 42.525 49.2188L43.575 44.7125C43.75 43.8813 43.4438 42.6562 42.8313 42.0437L39.1125 38.4125C36.9688 36.2687 37.6688 34.125 40.6438 33.6438L45.325 32.8563C46.1125 32.725 47.0313 32.025 47.3813 31.325L49.9625 26.1625C51.3625 23.3625 53.6375 23.3625 55.0375 26.1625L57.6188 31.325C57.9688 32.025 58.8875 32.725 59.7188 32.8563L64.4 33.6438C67.3313 34.125 68.0313 36.2687 65.8875 38.4125Z" fill="white"/>
</svg>
