<svg width="70" height="70" viewBox="0 0 70 70" fill="none" xmlns="http://www.w3.org/2000/svg">
<path d="M47.2208 5.8335H22.7791C12.1625 5.8335 5.83331 12.1627 5.83331 22.7793V47.1918C5.83331 57.8377 12.1625 64.1668 22.7791 64.1668H47.1916C57.8083 64.1668 64.1375 57.8377 64.1375 47.221V22.7793C64.1666 12.1627 57.8375 5.8335 47.2208 5.8335ZM35 46.3168C28.7583 46.3168 23.6833 41.2418 23.6833 35.0002C23.6833 28.7585 28.7583 23.6835 35 23.6835C41.2416 23.6835 46.3166 28.7585 46.3166 35.0002C46.3166 41.2418 41.2416 46.3168 35 46.3168ZM52.2666 20.0668C52.1208 20.4168 51.9166 20.7377 51.6541 21.0293C51.3625 21.2918 51.0416 21.496 50.6916 21.6418C50.1608 21.8671 49.5749 21.9292 49.0087 21.8201C48.4425 21.711 47.9216 21.4357 47.5125 21.0293C47.25 20.7377 47.0458 20.4168 46.9 20.0668C46.7502 19.7163 46.6709 19.3397 46.6666 18.9585C46.6666 18.5793 46.7541 18.2002 46.9 17.8502C47.0458 17.471 47.25 17.1793 47.5125 16.8877C48.1833 16.2168 49.2041 15.896 50.1375 16.1002C50.3416 16.1293 50.5166 16.1877 50.6916 16.2752C50.8666 16.3335 51.0416 16.421 51.2166 16.5377C51.3625 16.6252 51.5083 16.771 51.6541 16.8877C51.9166 17.1793 52.1208 17.471 52.2666 17.8502C52.4125 18.2002 52.5 18.5793 52.5 18.9585C52.5 19.3377 52.4125 19.7168 52.2666 20.0668Z" fill="#444A58"/>
</svg>
