<svg width="502" height="31" viewBox="0 0 502 31" fill="none" xmlns="http://www.w3.org/2000/svg">
<path d="M3.67674 31C21.1034 30.8975 38.3287 26.7471 53.8415 18.6512C61.346 14.7058 68.0448 10.4529 76.4559 8.71072C84.5145 7.07105 92.976 7.58344 100.833 9.99171C108.69 12.4 115.339 17.319 122.793 20.8033C130.7 24.4925 138.96 27.2595 147.472 28.9504C164.597 32.3322 182.527 31.5636 199.299 26.5934C207.207 24.2363 214.862 20.957 222.065 16.8578C229.569 12.6049 236.772 9.01815 245.435 8.09584C253.292 7.22477 261.25 8.24956 268.704 11.0165C276.662 13.9884 283.713 19.2148 291.57 22.5454C307.586 29.3603 325.265 32.1785 342.591 30.6413C359.867 29.1553 375.682 23.3653 390.691 14.6545C407.362 4.97022 426.803 6.09749 443.122 15.7818C459.944 25.7223 478.983 30.9487 498.424 31.0512C503.36 31.1025 503.36 23.314 498.424 23.2628C480.897 23.1603 463.621 18.7025 448.36 9.88923C441.158 5.73881 433.955 2.25452 425.695 0.871047C417.586 -0.461184 409.276 -0.153746 401.268 1.94708C393.259 4.04791 386.661 8.45452 379.358 12.195C371.602 16.1917 363.291 19.1636 354.78 21.0082C337.605 24.7487 319.523 23.8264 302.751 18.4463C294.793 15.8843 287.49 12.1438 280.238 7.94212C272.884 3.74047 264.926 1.17848 256.616 0.307411C248.809 -0.512424 240.75 0.35865 233.296 2.81815C225.137 5.48262 218.237 10.5041 210.531 14.0909C194.665 21.4694 176.886 24.3901 159.51 22.8529C150.897 22.0843 142.385 20.1372 134.226 17.2165C126.167 14.2958 119.217 9.68427 111.561 5.94377C94.8899 -2.15209 75.2471 -1.84466 58.8781 6.91733C50.5173 11.3752 42.5594 15.9355 33.4432 18.7537C23.7729 21.7256 13.8003 23.2115 3.7271 23.2628C-1.20878 23.2628 -1.25915 31.0512 3.67674 31Z" fill="#88EDE7"/>
</svg>
