<svg width="45" height="45" viewBox="0 0 45 45" fill="none" xmlns="http://www.w3.org/2000/svg">
<path d="M33.75 20.1562C32.9813 20.1562 32.3438 19.5187 32.3438 18.75V15C32.3438 9.09375 30.675 5.15625 22.5 5.15625C14.325 5.15625 12.6562 9.09375 12.6562 15V18.75C12.6562 19.5187 12.0187 20.1562 11.25 20.1562C10.4812 20.1562 9.84375 19.5187 9.84375 18.75V15C9.84375 9.5625 11.1562 2.34375 22.5 2.34375C33.8438 2.34375 35.1562 9.5625 35.1562 15V18.75C35.1562 19.5187 34.5187 20.1562 33.75 20.1562Z" fill="black"/>
<path d="M31.875 42.6562H13.125C4.85625 42.6562 2.34375 40.1437 2.34375 31.875V28.125C2.34375 19.8563 4.85625 17.3438 13.125 17.3438H31.875C40.1437 17.3438 42.6562 19.8563 42.6562 28.125V31.875C42.6562 40.1437 40.1437 42.6562 31.875 42.6562ZM13.125 20.1562C6.4125 20.1562 5.15625 21.4313 5.15625 28.125V31.875C5.15625 38.5688 6.4125 39.8438 13.125 39.8438H31.875C38.5875 39.8438 39.8438 38.5688 39.8438 31.875V28.125C39.8438 21.4313 38.5875 20.1562 31.875 20.1562H13.125Z" fill="black"/>
<path d="M15 31.8731C14.7563 31.8731 14.5125 31.8169 14.2875 31.7231C14.0437 31.6294 13.8562 31.4981 13.6687 31.3294C13.3312 30.9731 13.125 30.5044 13.125 29.9981C13.125 29.7544 13.1812 29.5106 13.275 29.2856C13.3687 29.0419 13.5 28.8544 13.6687 28.6669C13.8562 28.4981 14.0437 28.3669 14.2875 28.2731C14.9625 27.9731 15.8063 28.1419 16.3313 28.6669C16.5 28.8544 16.6313 29.0606 16.725 29.2856C16.8188 29.5106 16.875 29.7544 16.875 29.9981C16.875 30.4856 16.6688 30.9731 16.3313 31.3294C15.975 31.6669 15.4875 31.8731 15 31.8731ZM22.5 31.875C22.0125 31.875 21.525 31.6688 21.1687 31.3313C20.8312 30.975 20.625 30.5063 20.625 30C20.625 29.7563 20.6625 29.5125 20.775 29.2875C20.8688 29.0625 21 28.8563 21.1687 28.6688C21.6 28.2375 22.2562 28.0313 22.8562 28.1625C22.9875 28.1813 23.1 28.2188 23.2125 28.275C23.325 28.3125 23.4375 28.3688 23.55 28.4438C23.6438 28.5 23.7375 28.5938 23.8313 28.6688C24 28.8563 24.1313 29.0625 24.225 29.2875C24.3188 29.5125 24.375 29.7563 24.375 30C24.375 30.5063 24.1687 30.975 23.8313 31.3313L23.55 31.5563C23.4375 31.6313 23.325 31.6875 23.2125 31.725C23.1 31.7813 22.9875 31.8188 22.8562 31.8375C22.7437 31.8563 22.6125 31.875 22.5 31.875ZM30 31.875C29.4937 31.875 29.025 31.6688 28.6687 31.3313C28.5 31.1438 28.3687 30.9375 28.275 30.7125C28.1787 30.4872 28.1277 30.245 28.125 30C28.125 29.5125 28.3313 29.025 28.6687 28.6688L28.95 28.4438C29.0625 28.3688 29.175 28.3125 29.2875 28.275C29.4 28.2188 29.5125 28.1813 29.625 28.1625C30.2437 28.0313 30.8812 28.2375 31.3312 28.6688C31.6687 29.025 31.875 29.4938 31.875 30C31.875 30.2438 31.8188 30.4875 31.725 30.7125C31.6313 30.9563 31.5 31.1438 31.3312 31.3313C30.975 31.6688 30.4875 31.875 30 31.875Z" fill="black"/>
</svg>
