<svg width="32" height="32" viewBox="0 0 32 32" fill="none" xmlns="http://www.w3.org/2000/svg">
<path d="M25.3335 10.6667C26.3944 10.6667 27.4118 10.2452 28.1619 9.49508C28.9121 8.74494 29.3335 7.72752 29.3335 6.66666C29.3335 5.60579 28.9121 4.58838 28.1619 3.83823C27.4118 3.08808 26.3944 2.66666 25.3335 2.66666C24.2726 2.66666 23.2552 3.08808 22.5051 3.83823C21.7549 4.58838 21.3335 5.60579 21.3335 6.66666C21.3335 7.72752 21.7549 8.74494 22.5051 9.49508C23.2552 10.2452 24.2726 10.6667 25.3335 10.6667Z" fill="black"/>
<path d="M26.3998 12.56C26.3598 12.5733 26.3198 12.5733 26.2798 12.5867C26.1732 12.6 26.0798 12.6133 25.9598 12.6267C25.1986 12.7174 24.4268 12.6493 23.6932 12.4267C23.4731 12.3777 23.2586 12.3063 23.0532 12.2133C22.8532 12.1333 22.6398 12.0267 22.4532 11.92C21.4516 11.3718 20.628 10.5482 20.0798 9.54667C19.9732 9.36 19.8665 9.14667 19.7865 8.94667C19.6936 8.74123 19.6221 8.52676 19.5732 8.30667C19.3506 7.57305 19.2825 6.80126 19.3732 6.04C19.3865 5.92 19.3998 5.82667 19.4132 5.72C19.4265 5.68 19.4265 5.64 19.4398 5.6C19.4794 5.40626 19.4753 5.20614 19.428 5.01415C19.3807 4.82217 19.2912 4.64311 19.1662 4.48995C19.0411 4.3368 18.8835 4.21338 18.7048 4.12864C18.5262 4.0439 18.3309 3.99996 18.1332 4H10.0265C9.83984 4 9.65317 4.01333 9.47984 4.02667C9.31984 4.04 9.17317 4.05333 9.01317 4.08C8.85317 4.09333 8.69317 4.12 8.5465 4.14667C5.33317 4.61333 3.27984 6.65333 2.81317 9.88C2.7865 10.0267 2.75984 10.1867 2.7465 10.3467C2.71984 10.5067 2.7065 10.6533 2.69317 10.8133C2.67984 10.9867 2.6665 11.1733 2.6665 11.36V21.9733C2.6665 22.16 2.67984 22.3467 2.69317 22.52C2.7065 22.68 2.71984 22.8267 2.7465 22.9867C2.75984 23.1467 2.7865 23.3067 2.81317 23.4533C3.27984 26.68 5.33317 28.72 8.5465 29.1867C8.69317 29.2133 8.85317 29.24 9.01317 29.2533C9.17317 29.28 9.31984 29.2933 9.47984 29.3067C9.65317 29.32 9.83984 29.3333 10.0265 29.3333H20.6398C20.8265 29.3333 21.0132 29.32 21.1865 29.3067C21.3465 29.2933 21.4932 29.28 21.6532 29.2533C21.8132 29.24 21.9732 29.2133 22.1198 29.1867C25.3332 28.72 27.3865 26.68 27.8532 23.4533C27.8798 23.3067 27.9065 23.1467 27.9198 22.9867C27.9465 22.8267 27.9598 22.68 27.9732 22.52C27.9865 22.3467 27.9998 22.16 27.9998 21.9733V13.8667C27.9999 13.6689 27.9559 13.4737 27.8712 13.295C27.7865 13.1163 27.663 12.9588 27.5099 12.8337C27.3567 12.7086 27.1777 12.6192 26.9857 12.5718C26.7937 12.5245 26.5936 12.5205 26.3998 12.56ZM16.3732 20.3333C15.6665 22.56 13.2398 23.76 12.3998 23.76C11.5465 23.76 9.15984 22.5867 8.43984 20.3333H8.4265C7.95984 18.8533 8.49317 16.92 10.1865 16.3733C10.9598 16.12 11.7865 16.2667 12.3865 16.7333C12.9865 16.2667 13.8265 16.12 14.6132 16.3733C16.3065 16.92 16.8398 18.8533 16.3732 20.3333Z" fill="black"/>
</svg>
