<svg width="37" height="37" viewBox="0 0 37 37" fill="none" xmlns="http://www.w3.org/2000/svg">
<path d="M24.9595 3.08325H12.0403C6.42867 3.08325 3.08325 6.42867 3.08325 12.0403V24.9441C3.08325 30.5712 6.42867 33.9166 12.0403 33.9166H24.9441C30.5558 33.9166 33.9012 30.5712 33.9012 24.9595V12.0403C33.9166 6.42867 30.5712 3.08325 24.9595 3.08325ZM24.6666 19.6562H19.6562V24.6666C19.6562 25.2987 19.132 25.8228 18.4999 25.8228C17.8678 25.8228 17.3437 25.2987 17.3437 24.6666V19.6562H12.3333C11.7012 19.6562 11.177 19.132 11.177 18.4999C11.177 17.8678 11.7012 17.3437 12.3333 17.3437H17.3437V12.3333C17.3437 11.7012 17.8678 11.177 18.4999 11.177C19.132 11.177 19.6562 11.7012 19.6562 12.3333V17.3437H24.6666C25.2987 17.3437 25.8228 17.8678 25.8228 18.4999C25.8228 19.132 25.2987 19.6562 24.6666 19.6562Z" fill="black"/>
</svg>
