<svg width="28" height="21" viewBox="0 0 28 21" fill="none" xmlns="http://www.w3.org/2000/svg">
<path d="M18.8533 1.53167L20.7333 5.29167C20.9867 5.81167 21.6667 6.305 22.24 6.41167L25.64 6.97167C27.8133 7.33167 28.32 8.905 26.76 10.4783L24.1067 13.1317C23.6667 13.5717 23.4133 14.4383 23.56 15.065L24.32 18.345C24.92 20.9317 23.5333 21.945 21.2533 20.585L18.0667 18.6917C17.4933 18.345 16.5333 18.345 15.96 18.6917L12.7733 20.585C10.4933 21.9317 9.10667 20.9317 9.70667 18.345L10.4667 15.065C10.5867 14.425 10.3333 13.5583 9.89333 13.1183L7.24 10.465C5.68 8.905 6.18667 7.33167 8.36 6.95834L11.76 6.39834C12.3333 6.305 13.0133 5.79834 13.2667 5.27834L15.1467 1.51834C16.1733 -0.508329 17.8267 -0.508329 18.8533 1.53167ZM9 2.25034H1C0.453333 2.25034 0 1.797 0 1.25034C0 0.703671 0.453333 0.250337 1 0.250337H9C9.54667 0.250337 10 0.703671 10 1.25034C10 1.797 9.54667 2.25034 9 2.25034ZM5 20.917H1C0.453333 20.917 0 20.4637 0 19.917C0 19.3703 0.453333 18.917 1 18.917H5C5.54667 18.917 6 19.3703 6 19.917C6 20.4637 5.54667 20.917 5 20.917ZM2.33333 11.5837H1C0.453333 11.5837 0 11.1303 0 10.5837C0 10.037 0.453333 9.58367 1 9.58367H2.33333C2.88 9.58367 3.33333 10.037 3.33333 10.5837C3.33333 11.1303 2.88 11.5837 2.33333 11.5837Z" fill="black"/>
</svg>
