<svg width="35" height="39" viewBox="0 0 35 39" fill="none" xmlns="http://www.w3.org/2000/svg">
<path d="M24.2315 0.28125C18.6627 0.28125 14.144 4.8 14.144 10.3688C14.144 15.9375 18.6627 20.4563 24.2315 20.4563C29.8002 20.4563 34.319 15.9375 34.319 10.3688C34.319 4.8 29.8002 0.28125 24.2315 0.28125ZM6.92523 21.4331C5.26879 21.4326 3.67999 22.0902 2.50836 23.2611C1.33673 24.432 0.678232 26.0204 0.677735 27.6769C0.677237 29.3333 1.33478 30.9221 2.50571 32.0937C3.67664 33.2654 5.26504 33.9239 6.92148 33.9244C8.57793 33.9246 10.1666 33.2668 11.3381 32.0957C12.5095 30.9246 13.1678 29.3361 13.168 27.6797C13.1683 26.0232 12.5105 24.4345 11.3394 23.2631C10.1683 22.0916 8.58168 21.4334 6.92523 21.4331ZM26.1627 28.1644C23.2565 28.1644 20.894 30.5269 20.894 33.4331C20.894 36.3394 23.2565 38.7019 26.1627 38.7019C29.069 38.7019 31.4315 36.3394 31.4315 33.4331C31.4315 30.5269 29.069 28.1644 26.1627 28.1644Z" fill="white"/>
</svg>
