<svg width="392" height="399" viewBox="0 0 392 399" fill="none" xmlns="http://www.w3.org/2000/svg">
<path d="M212.822 104.963L319.932 40.1103L263.482 139.338L263.156 139.911L263.796 140.07L390.154 171.664L264.38 211.026L263.767 211.218L264.103 211.765L336.307 329.34L223.652 275.103L223.125 274.849L222.956 275.41L186.575 396.534L153.228 292.915L153.019 292.268L152.464 292.66L49.3855 365.357L99.429 248.549L99.674 247.977L99.0628 247.86L2.0982 229.428L108.255 179.318L108.886 179.02L108.402 178.518L11.9621 78.5027L145.335 124.362L145.854 124.541L145.983 124.008L175.789 1.7518L212.092 104.702L212.296 105.282L212.822 104.963Z" fill="#5FCFD0" stroke="black"/>
</svg>
