<svg width="236" height="192" viewBox="0 0 236 192" fill="none" xmlns="http://www.w3.org/2000/svg">
<path d="M66.3927 72.9906L41.9712 13.8655L92.5523 55.0963L92.989 55.4522L93.2906 54.9764L127.205 1.46069L134.664 65.6904L134.726 66.2277L135.257 66.1234L212.514 50.9332L167.319 94.41L166.825 94.8856L167.429 95.2107L233.083 130.543L169.191 129.946L168.371 129.939L168.74 130.671L198.209 189.189L136.551 148.129L136.094 147.825L135.834 148.308L113.227 190.205L97.0908 133.35L96.9373 132.809L96.4179 133.024L26.4781 162.086L69.3731 107.768L69.7589 107.279L69.1985 107.008L2.1217 74.5415L65.9373 73.6814L66.6739 73.6715L66.3927 72.9906Z" fill="#F5CE31" stroke="black"/>
</svg>
