<svg width="291" height="33" viewBox="0 0 291 33" fill="none" xmlns="http://www.w3.org/2000/svg">
<path d="M269.578 19.8101L269.176 20.0763L269.577 19.8099C267.73 17.0275 266.183 14.7831 264.463 13.2436C262.715 11.6782 260.784 10.8361 258.195 10.8361C255.61 10.8361 253.681 11.6784 251.934 13.2437C250.216 14.7831 248.669 17.0275 246.822 19.8099C243.093 25.4154 238.635 32.0808 229.979 32.0808C221.324 32.0808 216.856 25.4148 213.138 19.8101L213.138 19.8099C211.291 17.0275 209.744 14.7831 208.026 13.2437C206.278 11.6784 204.35 10.8361 201.765 10.8361C199.176 10.8361 197.247 11.6783 195.501 13.2438C193.783 14.7833 192.238 17.0277 190.391 19.8099C186.664 25.4153 182.205 32.0808 173.55 32.0808C164.894 32.0808 160.427 25.415 156.7 19.8099C154.853 17.0275 153.306 14.7831 151.586 13.2436C149.838 11.6782 147.907 10.8361 145.318 10.8361C142.729 10.8361 140.8 11.6783 139.053 13.2437C137.334 14.783 135.787 17.0274 133.936 19.8095L133.936 19.8096C130.209 25.415 125.75 32.0808 117.086 32.0808C108.43 32.0808 103.963 25.4148 100.236 19.8096C98.3885 17.0274 96.8415 14.783 95.122 13.2436C93.3735 11.6782 91.4427 10.8361 88.8536 10.8361C86.2646 10.8361 84.3338 11.6782 82.5854 13.2436C80.8659 14.783 79.3189 17.0274 77.4715 19.8096C73.7445 25.415 69.2859 32.0808 60.6216 32.0808C51.9657 32.0808 47.4985 25.4148 43.7715 19.8096C41.9242 17.0274 40.3772 14.783 38.6577 13.2436C36.9092 11.6782 34.9785 10.8361 32.3895 10.8361C29.8004 10.8361 27.8696 11.6782 26.1212 13.2436C24.4017 14.783 22.8547 17.0274 21.0073 19.8096C17.2803 25.4148 12.8132 32.0808 4.15735 32.0808C2.24883 32.0808 0.5 30.0202 0.5 27.1831C0.5 24.346 2.24883 22.2854 4.15735 22.2854C6.74631 22.2854 8.67708 21.4438 10.4256 19.8787C12.1451 18.3394 13.6921 16.0951 15.5394 13.312C19.2665 7.70846 23.7336 1.04083 32.3895 1.04083C41.0454 1.04083 45.5123 7.70846 49.2394 13.312C51.0868 16.0951 52.6337 18.3394 54.3533 19.8787C56.1018 21.4438 58.0326 22.2854 60.6216 22.2854C63.2105 22.2854 65.1412 21.4438 66.8898 19.8787C68.6094 18.3394 70.1564 16.0949 72.004 13.3116C75.7309 7.70799 80.1895 1.04083 88.8536 1.04083C97.5093 1.04083 101.976 7.70816 105.703 13.3116C107.551 16.0949 109.098 18.3394 110.818 19.8787C112.566 21.4438 114.497 22.2854 117.086 22.2854C119.675 22.2854 121.603 21.4438 123.351 19.8786C125.069 18.3394 126.616 16.095 128.468 13.3121L128.066 13.0447L128.468 13.312C132.195 7.70829 136.653 1.04083 145.318 1.04083C153.974 1.04083 158.441 7.70846 162.168 13.312C164.015 16.0951 165.562 18.3394 167.282 19.8787C169.03 21.4438 170.961 22.2854 173.55 22.2854C176.139 22.2854 178.068 21.4438 179.814 19.8784C181.532 18.3392 183.076 16.0946 184.924 13.3116C188.651 7.70782 193.11 1.04083 201.765 1.04083C210.421 1.04083 214.888 7.70842 218.605 13.3115L219.022 13.0351L218.605 13.3116C220.453 16.0949 222 18.3393 223.719 19.8786C225.466 21.4437 227.395 22.2854 229.979 22.2854C232.564 22.2854 234.493 21.4437 236.241 19.8786C237.96 18.3393 239.507 16.0949 241.354 13.3116C245.081 7.70779 249.539 1.04083 258.195 1.04083C266.85 1.04083 271.318 7.70848 275.045 13.312C276.892 16.0951 278.439 18.3394 280.159 19.8787C281.907 21.4439 283.838 22.2854 286.427 22.2854C288.336 22.2854 290.083 24.3452 290.084 27.1816C290.076 30.02 288.327 32.0808 286.418 32.0808C277.762 32.0808 273.295 25.4148 269.578 19.8101Z" fill="#C56DE3" stroke="black"/>
</svg>
