<svg width="291" height="33" viewBox="0 0 291 33" fill="none" xmlns="http://www.w3.org/2000/svg">
<path d="M269.176 19.6068L269.578 19.3405C273.295 24.9453 277.762 31.6112 286.418 31.6112C288.327 31.6112 290.076 29.5504 290.084 26.712C290.083 23.8756 288.336 21.8159 286.427 21.8159C283.838 21.8159 281.907 20.9738 280.159 19.4084C278.439 17.8689 276.892 15.6244 275.045 12.8421C271.318 7.23699 266.85 0.571228 258.195 0.571228C249.539 0.571228 245.081 7.2366 241.354 12.8421C239.507 15.6245 237.96 17.8689 236.241 19.4083C234.493 20.9736 232.564 21.8159 229.979 21.8159C227.395 21.8159 225.466 20.9736 223.719 19.4083C222 17.8689 220.453 15.6245 218.606 12.8421L218.605 12.8419C214.888 7.23714 210.421 0.571228 201.765 0.571228C193.11 0.571228 188.651 7.23664 184.923 12.8421C183.076 15.6242 181.532 17.8687 179.814 19.4082C178.068 20.9737 176.14 21.8159 173.55 21.8159C170.961 21.8159 169.03 20.9738 167.282 19.4084C165.562 17.869 164.015 15.6246 162.168 12.8423C158.441 7.23718 153.974 0.571228 145.318 0.571228C136.653 0.571228 132.195 7.237 128.468 12.8423L128.468 12.8425C126.616 15.6246 125.069 17.869 123.351 19.4083C121.604 20.9737 119.675 21.8159 117.086 21.8159C114.497 21.8159 112.566 20.9738 110.817 19.4084C109.098 17.869 107.551 15.6246 105.704 12.8423C101.977 7.23718 97.5095 0.571228 88.8536 0.571228C80.1895 0.571228 75.7308 7.2368 72.0039 12.8421C72.0039 12.8422 72.0038 12.8422 72.0037 12.8423L71.5874 12.5655C67.8775 18.1527 65.5363 21.3159 60.6216 21.3159C55.7067 21.3159 53.3655 18.1527 49.6558 12.5655L269.176 19.6068ZM269.176 19.6068L269.577 19.3403C267.73 16.5579 266.183 14.3135 264.463 12.774C262.715 11.2087 260.784 10.3666 258.195 10.3666C255.61 10.3666 253.681 11.2088 251.934 12.7741C250.216 14.3136 248.669 16.558 246.822 19.3403M269.176 19.6068L246.822 19.3403M246.822 19.3403C243.093 24.9459 238.635 31.6112 229.979 31.6112C221.324 31.6112 216.856 24.9452 213.138 19.3405L213.138 19.3403C211.291 16.558 209.744 14.3136 208.026 12.7741C206.278 11.2088 204.35 10.3666 201.765 10.3666C199.176 10.3666 197.247 11.2087 195.501 12.7742C193.783 14.3137 192.238 16.5582 190.391 19.3403C186.664 24.9458 182.205 31.6112 173.55 31.6112C164.894 31.6112 160.427 24.9454 156.7 19.3403C154.853 16.5579 153.306 14.3135 151.586 12.774C149.838 11.2086 147.907 10.3666 145.318 10.3666C142.729 10.3666 140.8 11.2087 139.053 12.7741C137.334 14.3134 135.787 16.5578 133.936 19.3399L133.936 19.3401C130.209 24.9454 125.75 31.6112 117.086 31.6112C108.43 31.6112 103.963 24.9452 100.236 19.3401C98.3885 16.5578 96.8415 14.3134 95.122 12.774C93.3735 11.2086 91.4427 10.3666 88.8536 10.3666C86.2646 10.3666 84.3338 11.2086 82.5854 12.774C80.8659 14.3134 79.3189 16.5578 77.4715 19.3401C73.7445 24.9454 69.2859 31.6112 60.6216 31.6112C51.9657 31.6112 47.4985 24.9452 43.7715 19.3401L246.822 19.3403Z" fill="#C56DE3" stroke="black"/>
</svg>
