<svg width="291" height="33" viewBox="0 0 291 33" fill="none" xmlns="http://www.w3.org/2000/svg">
<path d="M269.578 19.2693L269.176 19.5355L269.577 19.2691C267.73 16.4867 266.183 14.2422 264.463 12.7028C262.715 11.1374 260.784 10.2953 258.195 10.2953C255.61 10.2953 253.681 11.1376 251.934 12.7029C250.216 14.2423 248.669 16.4867 246.822 19.2691C243.093 24.8746 238.635 31.5399 229.979 31.5399C221.324 31.5399 216.856 24.874 213.138 19.2693L213.138 19.2691C211.291 16.4867 209.744 14.2423 208.026 12.7029C206.278 11.1376 204.35 10.2953 201.765 10.2953C199.176 10.2953 197.247 11.1375 195.501 12.703C193.783 14.2424 192.238 16.4869 190.391 19.2691C186.664 24.8745 182.205 31.5399 173.55 31.5399C164.894 31.5399 160.427 24.8742 156.7 19.2691C154.853 16.4867 153.306 14.2423 151.586 12.7028C149.838 11.1374 147.907 10.2953 145.318 10.2953C142.729 10.2953 140.8 11.1375 139.053 12.7029C137.334 14.2422 135.787 16.4866 133.936 19.2687L133.936 19.2688C130.209 24.8742 125.75 31.5399 117.086 31.5399C108.43 31.5399 103.963 24.874 100.236 19.2688C98.3885 16.4866 96.8415 14.2422 95.122 12.7028C93.3735 11.1374 91.4427 10.2953 88.8536 10.2953C86.2646 10.2953 84.3338 11.1374 82.5854 12.7028C80.8659 14.2422 79.3189 16.4866 77.4715 19.2688C73.7445 24.8742 69.2859 31.5399 60.6216 31.5399C51.9657 31.5399 47.4985 24.874 43.7715 19.2688C41.9242 16.4866 40.3772 14.2422 38.6577 12.7028C36.9092 11.1374 34.9785 10.2953 32.3895 10.2953C29.8004 10.2953 27.8696 11.1374 26.1212 12.7028C24.4017 14.2422 22.8547 16.4866 21.0073 19.2688C17.2803 24.874 12.8132 31.5399 4.15735 31.5399C2.24883 31.5399 0.5 29.4793 0.5 26.6423C0.5 23.8052 2.24883 21.7446 4.15735 21.7446C6.74639 21.7446 8.67715 20.9025 10.4256 19.3372C12.1452 17.7977 13.6922 15.5532 15.5396 12.7708C19.2667 7.16737 23.7338 0.5 32.3895 0.5C41.0454 0.5 45.5123 7.16763 49.2394 12.7712C51.0868 15.5534 52.6337 17.7977 54.3532 19.3372C56.1017 20.9025 58.0325 21.7446 60.6216 21.7446C63.2106 21.7446 65.1413 20.9025 66.8898 19.3372C68.6093 17.7977 70.1564 15.5532 72.0039 12.7708C75.7309 7.16721 80.1895 0.5 88.8536 0.5C97.5093 0.5 101.976 7.16738 105.703 12.7708C107.551 15.5532 109.098 17.7977 110.817 19.3372C112.566 20.9025 114.497 21.7446 117.086 21.7446C119.675 21.7446 121.604 20.9024 123.351 19.337C125.069 17.7977 126.616 15.5533 128.468 12.7713L128.468 12.7703C132.178 7.16758 136.645 0.5 145.301 0.5C153.956 0.5 158.423 7.16737 162.15 12.7708C163.998 15.5532 165.545 17.7977 167.264 19.3372C169.013 20.9025 170.944 21.7446 173.533 21.7446C176.122 21.7446 178.051 20.9025 179.797 19.3369C181.514 17.7975 183.059 15.553 184.906 12.7708C188.633 7.16704 193.092 0.5 201.747 0.5C210.404 0.5 214.87 7.16759 218.588 12.7707L218.588 12.7708C220.436 15.5533 221.983 17.7976 223.701 19.3371C225.449 20.9024 227.378 21.7446 229.963 21.7446C232.548 21.7446 234.476 20.9023 236.224 19.3371C237.942 17.7976 239.489 15.5533 241.337 12.7708C245.073 7.16702 249.539 0.5 258.195 0.5C266.85 0.5 271.318 7.16765 275.045 12.7712C276.892 15.5534 278.439 17.7977 280.159 19.3371C281.907 20.9025 283.838 21.7446 286.427 21.7446C288.336 21.7446 290.084 23.8051 290.084 26.6423C290.084 29.478 288.328 31.5399 286.418 31.5399C277.762 31.5399 273.295 24.874 269.578 19.2693Z" fill="#C56DE3" stroke="black"/>
</svg>
