<svg width="33" height="33" viewBox="0 0 33 33" fill="none" xmlns="http://www.w3.org/2000/svg">
<path d="M28.875 10.6562H4.125C3.56125 10.6562 3.09375 10.1888 3.09375 9.625C3.09375 9.06125 3.56125 8.59375 4.125 8.59375H28.875C29.4387 8.59375 29.9062 9.06125 29.9062 9.625C29.9062 10.1888 29.4387 10.6562 28.875 10.6562ZM28.875 17.5312H4.125C3.56125 17.5312 3.09375 17.0638 3.09375 16.5C3.09375 15.9363 3.56125 15.4688 4.125 15.4688H28.875C29.4387 15.4688 29.9062 15.9363 29.9062 16.5C29.9062 17.0638 29.4387 17.5312 28.875 17.5312ZM28.875 24.4062H4.125C3.56125 24.4062 3.09375 23.9388 3.09375 23.375C3.09375 22.8112 3.56125 22.3438 4.125 22.3438H28.875C29.4387 22.3438 29.9062 22.8112 29.9062 23.375C29.9062 23.9388 29.4387 24.4062 28.875 24.4062Z" fill="black"/>
</svg>
